<svg xmlns="http://www.w3.org/2000/svg" viewBox="0 0 64 64">
  <g transform="rotate(-13 32 32)">
    <path d="M 23 8 L 45 8 Q 51 8 51 14 L 51 50 Q 51 56 45 56 L 19 56 Q 13 56 13 50 L 13 18 Z"
          fill="#F4F5F3"/>
    <path d="M 23 8 L 13 18 L 23 18 Z" fill="#BE123C"/>
    <path d="M 23 8 L 45 8 Q 51 8 51 14 L 51 50 Q 51 56 45 56 L 19 56 Q 13 56 13 50 L 13 18 Z"
          fill="none" stroke="#0F1713" stroke-width="3" stroke-linejoin="round"/>
    <path d="M 23 8 L 23 18 L 13 18"
          fill="none" stroke="#0F1713" stroke-width="3" stroke-linejoin="round"/>
  </g>
  <g transform="rotate(-43 32 32)">
    <rect x="-3" y="22" width="52" height="20" rx="10" fill="none" stroke="#F5B82E" stroke-width="5.5"/>
    <rect x="15" y="22" width="52" height="20" rx="10" fill="none" stroke="#2DD4BF" stroke-width="5.5"/>
    <path d="M -3 32 A 10 10 0 0 0 7 42 L 39 42 A 10 10 0 0 0 49 32"
          fill="none" stroke="#F5B82E" stroke-width="5.5"/>
  </g>
</svg>
