<svg xmlns="http://www.w3.org/2000/svg" viewBox="0 0 512 512">
  <defs>
    <mask id="ft-gold-cut" maskUnits="userSpaceOnUse" x="-200" y="-200" width="900" height="900">
      <rect x="-200" y="-200" width="900" height="900" fill="white"/>
      <circle cx="310" cy="176" r="32" fill="black"/>
      <circle cx="202" cy="176" r="32" fill="black"/>
    </mask>
    <mask id="ft-teal-cut" maskUnits="userSpaceOnUse" x="-200" y="-200" width="900" height="900">
      <rect x="-200" y="-200" width="900" height="900" fill="white"/>
      <circle cx="310" cy="336" r="32" fill="black"/>
      <circle cx="202" cy="336" r="32" fill="black"/>
    </mask>
  </defs>

  <g transform="rotate(-13 256 256)" fill="none" stroke="currentColor" stroke-width="14" stroke-linejoin="round" opacity="0.5">
    <path d="M 182 66 L 358 66 Q 406 66 406 114 L 406 398 Q 406 446 358 446 L 154 446 Q 106 446 106 398 L 106 142 Z"/>
    <path d="M 182 66 L 182 142 L 106 142"/>
  </g>

  <g transform="rotate(-43 256 256)" fill="none" stroke="currentColor" stroke-width="38">
    <rect x="-30" y="176" width="420" height="160" rx="80" mask="url(#ft-gold-cut)"/>
    <rect x="122" y="176" width="420" height="160" rx="80" mask="url(#ft-teal-cut)"/>
  </g>
</svg>
