<svg xmlns="http://www.w3.org/2000/svg" viewBox="0 0 1280 320">
  <!-- Background -->
  <rect width="1280" height="320" fill="#F4F5F3"/>

  <!-- Decorative bottom border -->
  <rect x="0" y="312" width="1280" height="8" fill="#BE123C"/>

  <!-- Glyph on the left -->
  <g transform="translate(60 30) scale(0.5)">
    <g transform="rotate(-13 256 256)">
      <path d="M 182 66 L 358 66 Q 406 66 406 114 L 406 398 Q 406 446 358 446 L 154 446 Q 106 446 106 398 L 106 142 Z" fill="#FFFFFF"/>
      <path d="M 182 66 L 106 142 L 182 142 Z" fill="#BE123C"/>
      <path d="M 182 66 L 358 66 Q 406 66 406 114 L 406 398 Q 406 446 358 446 L 154 446 Q 106 446 106 398 L 106 142 Z"
            fill="none" stroke="#0F1713" stroke-width="7" stroke-linejoin="round"/>
      <path d="M 182 66 L 182 142 L 106 142"
            fill="none" stroke="#0F1713" stroke-width="7" stroke-linejoin="round"/>
    </g>
    <g transform="rotate(-43 256 256)">
      <rect x="-30" y="176" width="420" height="160" rx="80" fill="none" stroke="#F5B82E" stroke-width="38"/>
      <rect x="122" y="176" width="420" height="160" rx="80" fill="none" stroke="#2DD4BF" stroke-width="38"/>
      <path d="M -30 256 A 80 80 0 0 0 50 336 L 310 336 A 80 80 0 0 0 390 256"
            fill="none" stroke="#F5B82E" stroke-width="38"/>
    </g>
  </g>

  <!-- Wordmark -->
  <g font-family="Fraunces, Georgia, serif" font-weight="700">
    <text x="380" y="170" font-size="116" fill="#0F1713">File</text>
    <text x="568" y="170" font-size="116" fill="#BE123C">Tugger</text>
  </g>

  <!-- Tagline -->
  <text x="384" y="218" font-family="Atkinson Hyperlegible Next, -apple-system, sans-serif" font-size="22"
        font-weight="600" fill="#5C6660" letter-spacing="4">
    MEGA  ·  GOOGLE DRIVE  ·  DIRECT LINKS
  </text>

  <!-- Subtag -->
  <text x="384" y="258" font-family="Atkinson Hyperlegible Next, -apple-system, sans-serif" font-size="18"
        font-weight="500" fill="#94A099" letter-spacing="0.5">
    One queue, many sources. Self-hosted batch downloader.
  </text>
</svg>
